<svg width="572" height="518" viewBox="0 0 572 518" fill="none" xmlns="http://www.w3.org/2000/svg">
<path d="M31.25 225.082C27.139 225.082 23.172 227.149 19.513 230.991C15.852 234.835 12.533 240.424 9.73398 247.371C4.13898 261.263 0.665985 280.489 0.665985 301.751C0.665985 323.013 4.13898 342.239 9.73398 356.131C12.533 363.078 15.852 368.667 19.513 372.511C23.172 376.353 27.139 378.42 31.25 378.42C35.361 378.42 39.328 376.353 42.987 372.511C46.648 368.667 49.967 363.078 52.766 356.131C58.361 342.239 61.834 323.013 61.834 301.751C61.834 280.489 58.361 261.263 52.766 247.371C49.967 240.424 46.648 234.835 42.987 230.991C39.328 227.149 35.361 225.082 31.25 225.082Z" stroke="url(#paint0_linear_1_3411)"/>
<path d="M96.1489 181.084C90.5819 181.084 85.2049 184.35 80.2459 190.422C75.2899 196.491 70.8039 205.303 67.0269 216.236C59.4759 238.098 54.7969 268.331 54.7969 301.75C54.7969 335.169 59.4759 365.402 67.0269 387.264C70.8039 398.197 75.2899 407.009 80.2459 413.078C85.2049 419.15 90.5819 422.416 96.1489 422.416C101.717 422.416 107.094 419.15 112.053 413.078C117.009 407.009 121.495 398.197 125.271 387.264C132.823 365.402 137.502 335.169 137.502 301.75C137.502 268.331 132.823 238.098 125.271 216.236C121.495 205.303 117.009 196.491 112.053 190.422C107.094 184.35 101.717 181.084 96.1489 181.084Z" stroke="url(#paint1_linear_1_3411)"/>
<path d="M192.122 141.123C184.861 141.123 177.87 145.382 171.443 153.252C165.02 161.118 159.213 172.531 154.326 186.678C144.555 214.966 138.502 254.079 138.502 297.305C138.502 340.531 144.555 379.643 154.326 407.932C159.213 422.078 165.02 433.491 171.443 441.357C177.87 449.227 184.861 453.486 192.122 453.486C199.383 453.486 206.374 449.227 212.801 441.357C219.225 433.491 225.031 422.078 229.918 407.932C239.689 379.643 245.742 340.531 245.742 297.305C245.742 254.079 239.689 214.966 229.918 186.678C225.031 172.531 219.225 161.118 212.801 153.252C206.374 145.382 199.383 141.123 192.122 141.123Z" stroke="url(#paint2_linear_1_3411)"/>
<path d="M313.103 93.2949C304.082 93.2949 295.415 98.5861 287.464 108.322C279.516 118.055 272.336 132.168 266.297 149.652C254.22 184.616 246.741 232.95 246.741 286.361C246.741 339.773 254.22 388.107 266.297 423.07C272.336 440.554 279.516 454.668 287.464 464.4C295.415 474.137 304.082 479.428 313.103 479.428C322.123 479.428 330.789 474.136 338.74 464.4C346.688 454.668 353.868 440.554 359.907 423.07C371.984 388.107 379.463 339.773 379.463 286.361C379.463 232.95 371.984 184.616 359.907 149.652C353.868 132.168 346.688 118.055 338.74 108.322C330.789 98.5863 322.123 93.2951 313.103 93.2949Z" stroke="url(#paint3_linear_1_3411)"/>
<path d="M442.385 51C431.465 51 420.989 57.406 411.393 69.1572C401.799 80.9046 393.137 97.9336 385.854 119.021C371.288 161.19 362.27 219.479 362.27 283.887C362.27 348.294 371.288 406.583 385.854 448.753C393.137 469.84 401.799 486.869 411.393 498.616C420.989 510.367 431.465 516.773 442.385 516.773C453.304 516.773 463.78 510.367 473.377 498.616C482.97 486.869 491.632 469.84 498.916 448.753C513.482 406.583 522.5 348.294 522.5 283.887C522.5 219.479 513.482 161.19 498.916 119.021C491.632 97.9336 482.97 80.9046 473.377 69.1572C463.78 57.406 453.304 51 442.385 51Z" stroke="url(#paint4_linear_1_3411)"/>
<path d="M531 65.5C517.193 65.5 506 54.3071 506 40.5C506 26.6929 517.193 15.5 531 15.5C544.807 15.5 556 26.6929 556 40.5C556 54.3071 544.807 65.5 531 65.5Z" fill="white" fill-opacity="0.1" stroke="#626262"/>
<path d="M531 48.5C526.582 48.5 523 44.9183 523 40.5C523 36.0817 526.582 32.5 531 32.5C535.418 32.5 539 36.0817 539 40.5C539 44.9183 535.418 48.5 531 48.5Z" fill="#333377" stroke="#72BEF9"/>
<path d="M531 71.5C513.879 71.5 500 57.6208 500 40.5C500 23.3792 513.879 9.5 531 9.5C548.121 9.5 562 23.3792 562 40.5C562 57.6208 548.121 71.5 531 71.5Z" fill="white" fill-opacity="0.1" stroke="#626262"/>
<path d="M531 48.5C526.582 48.5 523 44.9183 523 40.5C523 36.0817 526.582 32.5 531 32.5C535.418 32.5 539 36.0817 539 40.5C539 44.9183 535.418 48.5 531 48.5Z" fill="#29D9C2" stroke="#72BEF9"/>
<path d="M531 80.5C508.909 80.5 491 62.5914 491 40.5C491 18.4086 508.909 0.5 531 0.5C553.091 0.5 571 18.4086 571 40.5C571 62.5914 553.091 80.5 531 80.5Z" fill="white" fill-opacity="0.1" stroke="#626262"/>
<defs>
<linearGradient id="paint0_linear_1_3411" x1="62.334" y1="289.037" x2="-2.28202" y2="303.616" gradientUnits="userSpaceOnUse">
<stop stop-color="#72BEF9"/>
<stop offset="0.254808" stop-color="#29D9C2"/>
<stop offset="0.8125" stop-color="#72BEF9" stop-opacity="0"/>
</linearGradient>
<linearGradient id="paint1_linear_1_3411" x1="138.002" y1="287.385" x2="52.5939" y2="293.947" gradientUnits="userSpaceOnUse">
<stop stop-color="#72BEF9"/>
<stop offset="0.254808" stop-color="#29D9C2"/>
<stop offset="0.658654" stop-color="#72BEF9" stop-opacity="0"/>
</linearGradient>
<linearGradient id="paint2_linear_1_3411" x1="246.242" y1="278.729" x2="135.799" y2="287.215" gradientUnits="userSpaceOnUse">
<stop stop-color="#72BEF9"/>
<stop offset="0.254808" stop-color="#29D9C2"/>
<stop offset="0.658654" stop-color="#72BEF9" stop-opacity="0"/>
</linearGradient>
<linearGradient id="paint3_linear_1_3411" x1="379.963" y1="263.412" x2="243.52" y2="273.896" gradientUnits="userSpaceOnUse">
<stop stop-color="#72BEF9"/>
<stop offset="0.254808" stop-color="#29D9C2"/>
<stop offset="0.658654" stop-color="#72BEF9" stop-opacity="0"/>
</linearGradient>
<linearGradient id="paint4_linear_1_3411" x1="523" y1="256.217" x2="358.489" y2="268.857" gradientUnits="userSpaceOnUse">
<stop stop-color="#72BEF9"/>
<stop offset="0.254808" stop-color="#29D9C2"/>
<stop offset="0.658654" stop-color="#72BEF9" stop-opacity="0"/>
</linearGradient>
</defs>
</svg>
