<svg width="575" height="521" viewBox="0 0 575 521" fill="none" xmlns="http://www.w3.org/2000/svg">
<path d="M543.25 228.082C547.361 228.082 551.328 230.149 554.987 233.991C558.648 237.835 561.967 243.424 564.766 250.371C570.361 264.263 573.834 283.489 573.834 304.751C573.834 326.013 570.361 345.239 564.766 359.131C561.967 366.078 558.648 371.667 554.987 375.511C551.328 379.353 547.361 381.42 543.25 381.42C539.139 381.42 535.172 379.353 531.513 375.511C527.852 371.667 524.533 366.078 521.734 359.131C516.139 345.239 512.666 326.013 512.666 304.751C512.666 283.489 516.139 264.263 521.734 250.371C524.533 243.424 527.852 237.835 531.513 233.991C535.172 230.149 539.139 228.082 543.25 228.082Z" stroke="url(#paint0_linear_1_3387)"/>
<path d="M478.351 184.084C483.918 184.084 489.295 187.35 494.254 193.422C499.21 199.491 503.696 208.303 507.473 219.236C515.024 241.098 519.703 271.331 519.703 304.75C519.703 338.169 515.024 368.402 507.473 390.264C503.696 401.197 499.21 410.009 494.254 416.078C489.295 422.15 483.918 425.416 478.351 425.416C472.783 425.416 467.406 422.15 462.447 416.078C457.491 410.009 453.005 401.197 449.229 390.264C441.677 368.402 436.998 338.169 436.998 304.75C436.998 271.331 441.677 241.098 449.229 219.236C453.005 208.303 457.491 199.491 462.447 193.422C467.406 187.35 472.783 184.084 478.351 184.084Z" stroke="url(#paint1_linear_1_3387)"/>
<path d="M382.378 144.123C389.639 144.123 396.63 148.382 403.057 156.252C409.48 164.118 415.287 175.531 420.174 189.678C429.945 217.966 435.998 257.079 435.998 300.305C435.998 343.531 429.945 382.643 420.174 410.932C415.287 425.078 409.48 436.491 403.057 444.357C396.63 452.227 389.639 456.486 382.378 456.486C375.117 456.486 368.126 452.227 361.699 444.357C355.275 436.491 349.469 425.078 344.582 410.932C334.811 382.643 328.758 343.531 328.758 300.305C328.758 257.079 334.811 217.966 344.582 189.678C349.469 175.531 355.275 164.118 361.699 156.252C368.126 148.382 375.117 144.123 382.378 144.123Z" stroke="url(#paint2_linear_1_3387)"/>
<path d="M261.397 96.2949C270.418 96.2949 279.085 101.586 287.036 111.322C294.984 121.055 302.164 135.168 308.203 152.652C320.28 187.616 327.759 235.95 327.759 289.361C327.759 342.773 320.28 391.107 308.203 426.07C302.164 443.554 294.984 457.668 287.036 467.4C279.085 477.137 270.418 482.428 261.397 482.428C252.377 482.428 243.711 477.136 235.76 467.4C227.812 457.668 220.632 443.554 214.593 426.07C202.516 391.107 195.037 342.773 195.037 289.361C195.037 235.95 202.516 187.616 214.593 152.652C220.632 135.168 227.812 121.055 235.76 111.322C243.711 101.586 252.377 96.2951 261.397 96.2949Z" stroke="url(#paint3_linear_1_3387)"/>
<path d="M132.115 54C143.035 54 153.511 60.406 163.107 72.1572C172.701 83.9046 181.363 100.934 188.646 122.021C203.212 164.19 212.23 222.479 212.23 286.887C212.23 351.294 203.212 409.583 188.646 451.753C181.363 472.84 172.701 489.869 163.107 501.616C153.511 513.367 143.035 519.773 132.115 519.773C121.196 519.773 110.72 513.367 101.123 501.616C91.5296 489.869 82.8677 472.84 75.584 451.753C61.018 409.583 52 351.294 52 286.887C52 222.479 61.018 164.19 75.584 122.021C82.8677 100.934 91.5296 83.9046 101.123 72.1572C110.72 60.406 121.196 54 132.115 54Z" stroke="url(#paint4_linear_1_3387)"/>
<path d="M43.5 48.5C46.2614 48.5 48.5 46.2614 48.5 43.5C48.5 40.7386 46.2614 38.5 43.5 38.5C40.7386 38.5 38.5 40.7386 38.5 43.5C38.5 46.2614 40.7386 48.5 43.5 48.5Z" fill="#29D9C2" stroke="#72BEF9"/>
<path d="M43.5 68.5C57.3071 68.5 68.5 57.3071 68.5 43.5C68.5 29.6929 57.3071 18.5 43.5 18.5C29.6929 18.5 18.5 29.6929 18.5 43.5C18.5 57.3071 29.6929 68.5 43.5 68.5Z" fill="white" fill-opacity="0.1" stroke="#626262"/>
<path d="M43.5 51.5C47.9183 51.5 51.5 47.9183 51.5 43.5C51.5 39.0817 47.9183 35.5 43.5 35.5C39.0817 35.5 35.5 39.0817 35.5 43.5C35.5 47.9183 39.0817 51.5 43.5 51.5Z" fill="#29D9C2" stroke="#72BEF9"/>
<path d="M43.5 86.5C67.2482 86.5 86.5 67.2482 86.5 43.5C86.5 19.7518 67.2482 0.5 43.5 0.5C19.7518 0.5 0.5 19.7518 0.5 43.5C0.5 67.2482 19.7518 86.5 43.5 86.5Z" fill="white" fill-opacity="0.1" stroke="#626262"/>
<path d="M43.5 72C59.2401 72 72 59.2401 72 43.5C72 27.7599 59.2401 15 43.5 15C27.7599 15 15 27.7599 15 43.5C15 59.2401 27.7599 72 43.5 72Z" fill="white" fill-opacity="0.1" stroke="#626262"/>
<defs>
<linearGradient id="paint0_linear_1_3387" x1="512.166" y1="292.037" x2="576.782" y2="306.616" gradientUnits="userSpaceOnUse">
<stop stop-color="#72BEF9"/>
<stop offset="0.254808" stop-color="#29D9C2"/>
<stop offset="0.8125" stop-color="#72BEF9" stop-opacity="0"/>
</linearGradient>
<linearGradient id="paint1_linear_1_3387" x1="436.498" y1="290.385" x2="521.906" y2="296.947" gradientUnits="userSpaceOnUse">
<stop stop-color="#72BEF9"/>
<stop offset="0.254808" stop-color="#29D9C2"/>
<stop offset="0.658654" stop-color="#72BEF9" stop-opacity="0"/>
</linearGradient>
<linearGradient id="paint2_linear_1_3387" x1="328.258" y1="281.729" x2="438.701" y2="290.215" gradientUnits="userSpaceOnUse">
<stop stop-color="#72BEF9"/>
<stop offset="0.254808" stop-color="#29D9C2"/>
<stop offset="0.658654" stop-color="#72BEF9" stop-opacity="0"/>
</linearGradient>
<linearGradient id="paint3_linear_1_3387" x1="194.537" y1="266.412" x2="330.98" y2="276.896" gradientUnits="userSpaceOnUse">
<stop stop-color="#72BEF9"/>
<stop offset="0.254808" stop-color="#29D9C2"/>
<stop offset="0.658654" stop-color="#72BEF9" stop-opacity="0"/>
</linearGradient>
<linearGradient id="paint4_linear_1_3387" x1="51.5" y1="259.217" x2="216.011" y2="271.857" gradientUnits="userSpaceOnUse">
<stop stop-color="#72BEF9"/>
<stop offset="0.254808" stop-color="#29D9C2"/>
<stop offset="0.658654" stop-color="#72BEF9" stop-opacity="0"/>
</linearGradient>
</defs>
</svg>
