<svg width="29" height="29" viewBox="0 0 29 29" fill="none" xmlns="http://www.w3.org/2000/svg">
<g clip-path="url(#clip0_1_3305)">
<path d="M19.6667 6.33301C19.6667 3.38801 17.2789 1 14.3333 1C11.3878 1 9 3.38801 9 6.33301M9 12.333V16.333M19.6667 12.333V16.333M26.3333 14.333V19.133C26.3333 22.12 26.3333 23.614 25.752 24.755C25.2407 25.758 24.4248 26.574 23.4213 27.085C22.2804 27.667 20.7869 27.667 17.8 27.667H10.8667C7.8797 27.667 6.3863 27.667 5.2454 27.085C4.2419 26.574 3.426 25.758 2.9146 24.755C2.3333 23.614 2.3333 22.12 2.3333 19.133V14.333M5 14.333H23.6667C24.9092 14.333 25.5304 14.333 26.0205 14.13C26.6739 13.86 27.193 13.341 27.4637 12.687C27.6667 12.197 27.6667 11.576 27.6667 10.333C27.6667 9.09101 27.6667 8.47001 27.4637 7.98001C27.193 7.32601 26.6739 6.80701 26.0205 6.53601C25.5304 6.33301 24.9092 6.33301 23.6667 6.33301H5C3.7575 6.33301 3.1362 6.33301 2.6462 6.53601C1.9928 6.80701 1.4736 7.32601 1.203 7.98001C0.999999 8.47001 1 9.09101 1 10.333C1 11.576 0.999999 12.197 1.203 12.687C1.4736 13.341 1.9928 13.86 2.6462 14.13C3.1362 14.333 3.7575 14.333 5 14.333Z" stroke="url(#paint0_linear_1_3305)" stroke-width="2" stroke-linecap="round" stroke-linejoin="round"/>
</g>
<defs>
<linearGradient id="paint0_linear_1_3305" x1="14.3334" y1="1" x2="14.3334" y2="27.667" gradientUnits="userSpaceOnUse">
<stop stop-color="#004AAD"/>
<stop offset="0.307692" stop-color="#0097B2"/>
<stop offset="1" stop-color="#29D9C2"/>
</linearGradient>
<clipPath id="clip0_1_3305">
<rect width="29" height="29" fill="white"/>
</clipPath>
</defs>
</svg>
