<svg width="110" height="110" viewBox="0 0 110 110" fill="none" xmlns="http://www.w3.org/2000/svg">
<g filter="url(#filter0_i_1_3440)">
<rect x="9" y="9" width="92" height="92" fill="white" fill-opacity="0.01"/>
<rect x="9.5" y="9.5" width="91" height="91" stroke="#D9D9D9" stroke-opacity="0.35"/>
<g clip-path="url(#clip0_1_3440)">
<mask id="mask0_1_3440" style="mask-type:alpha" maskUnits="userSpaceOnUse" x="29" y="29" width="52" height="51">
<path opacity="0.4" fill-rule="evenodd" clip-rule="evenodd" d="M54.8943 73.8278C64.0001 73.8278 68.5531 73.8278 71.3817 71.0239C74.2107 68.2203 74.2107 63.7075 74.2107 54.6825C74.2107 45.6573 74.2107 41.1447 71.3817 38.341C68.5531 35.5371 64.0001 35.5371 54.8943 35.5371C45.7885 35.5371 41.2357 35.5371 38.4069 38.341C35.5781 41.1447 35.5781 45.6573 35.5781 54.6825C35.5781 63.7075 35.5781 68.2203 38.4069 71.0239C41.2357 73.8278 45.7885 73.8278 54.8943 73.8278ZM56.1495 44.7794C55.7185 43.6245 54.0703 43.6245 53.6393 44.7794L51.7067 49.9555C51.4355 50.6818 50.858 51.2543 50.1251 51.523L44.9028 53.4384C43.7377 53.8656 43.7377 55.4992 44.9028 55.9264L50.1251 57.8419C50.858 58.1107 51.4355 58.6831 51.7067 59.4095L53.6393 64.5856C54.0703 65.7403 55.7185 65.7403 56.1495 64.5856L58.0821 59.4095C58.3531 58.6831 58.9307 58.1107 59.6635 57.8419L64.886 55.9264C66.0509 55.4992 66.0509 53.8656 64.886 53.4384L59.6635 51.523C58.9307 51.2543 58.3531 50.6818 58.0821 49.9555L56.1495 44.7794Z" fill="url(#paint0_linear_1_3440)"/>
<path d="M71.3817 71.0239C68.5531 73.8278 64.0001 73.8278 54.8943 73.8278C45.7885 73.8278 41.2357 73.8278 38.4069 71.0239C35.5781 68.2203 35.5781 63.7075 35.5781 54.6825C35.5781 45.6573 35.5781 41.1447 38.4069 38.341C41.2357 35.5371 45.7885 35.5371 54.8943 35.5371C64.0001 35.5371 68.5531 35.5371 71.3817 38.341C74.2107 41.1447 74.2107 45.6573 74.2107 54.6825C74.2107 63.7075 74.2107 68.2203 71.3817 71.0239Z" stroke="#F4F7F5" stroke-width="2.5" stroke-linecap="round" stroke-linejoin="round"/>
<path d="M45.2372 30.75V35.5363M64.5534 30.75V35.5363M54.8953 30.75V35.5363M45.2372 73.8269V78.6132M54.8953 73.8269V78.6132M64.5534 73.8269V78.6132M79.0405 64.2542H74.2115M35.579 45.109H30.75M35.579 64.2542H30.75M35.579 54.6815H30.75M79.0405 45.109H74.2115M79.0405 54.6815H74.2115" stroke="#F4F7F5" stroke-width="2.5" stroke-linecap="round" stroke-linejoin="round"/>
<path d="M53.6417 44.7783C54.0726 43.6234 55.7207 43.6234 56.1517 44.7783L58.0843 49.9544C58.3555 50.6807 58.9331 51.2532 59.6659 51.522L64.8882 53.4375C66.0533 53.8646 66.0533 55.4981 64.8882 55.9253L59.6659 57.8408C58.9331 58.1096 58.3555 58.6821 58.0843 59.4084L56.1517 64.5845C55.7207 65.7392 54.0726 65.7392 53.6417 64.5845L51.7091 59.4084C51.4379 58.6821 50.8603 58.1096 50.1275 57.8408L44.9052 55.9253C43.7399 55.4981 43.7399 53.8646 44.9052 53.4375L50.1275 51.522C50.8603 51.2532 51.4379 50.6807 51.7091 49.9544L53.6417 44.7783Z" stroke="#F4F7F5" stroke-width="2.5"/>
</mask>
<g mask="url(#mask0_1_3440)">
<path d="M83.8706 25.9629H25.9219V83.3988H83.8706V25.9629Z" fill="url(#paint1_linear_1_3440)"/>
</g>
</g>
<mask id="path-8-inside-1_1_3440" fill="white">
<path d="M0 0H20V20H0V0Z"/>
</mask>
<g filter="url(#filter1_i_1_3440)">
<path d="M0 0H20V20H0V0Z" fill="white" fill-opacity="0.01"/>
</g>
<path d="M0 0V-1H-1V0H0ZM20 0H21V-1H20V0ZM20 20V21H21V20H20ZM0 20H-1V21H0V20ZM0 0V1H20V0V-1H0V0ZM20 0H19V20H20H21V0H20ZM20 20V19H0V20V21H20V20ZM0 20H1V0H0H-1V20H0Z" fill="#D9D9D9" fill-opacity="0.35" mask="url(#path-8-inside-1_1_3440)"/>
<rect x="8" y="8" width="4" height="4" rx="2" fill="white"/>
<mask id="path-11-inside-2_1_3440" fill="white">
<path d="M90 90H110V110H90V90Z"/>
</mask>
<g filter="url(#filter2_i_1_3440)">
<path d="M90 90H110V110H90V90Z" fill="white" fill-opacity="0.01"/>
</g>
<path d="M90 90V89H89V90H90ZM110 90H111V89H110V90ZM110 110V111H111V110H110ZM90 110H89V111H90V110ZM90 90V91H110V90V89H90V90ZM110 90H109V110H110H111V90H110ZM110 110V109H90V110V111H110V110ZM90 110H91V90H90H89V110H90Z" fill="#D9D9D9" fill-opacity="0.35" mask="url(#path-11-inside-2_1_3440)"/>
<rect x="98" y="98" width="4" height="4" rx="2" fill="white"/>
<mask id="path-14-inside-3_1_3440" fill="white">
<path d="M90 0H110V20H90V0Z"/>
</mask>
<g filter="url(#filter3_i_1_3440)">
<path d="M90 0H110V20H90V0Z" fill="white" fill-opacity="0.01"/>
</g>
<path d="M90 0V-1H89V0H90ZM110 0H111V-1H110V0ZM110 20V21H111V20H110ZM90 20H89V21H90V20ZM90 0V1H110V0V-1H90V0ZM110 0H109V20H110H111V0H110ZM110 20V19H90V20V21H110V20ZM90 20H91V0H90H89V20H90Z" fill="#D9D9D9" fill-opacity="0.35" mask="url(#path-14-inside-3_1_3440)"/>
<rect x="98" y="8" width="4" height="4" rx="2" fill="white"/>
<mask id="path-17-inside-4_1_3440" fill="white">
<path d="M0 90H20V110H0V90Z"/>
</mask>
<g filter="url(#filter4_i_1_3440)">
<path d="M0 90H20V110H0V90Z" fill="white" fill-opacity="0.01"/>
</g>
<path d="M0 90V89H-1V90H0ZM20 90H21V89H20V90ZM20 110V111H21V110H20ZM0 110H-1V111H0V110ZM0 90V91H20V90V89H0V90ZM20 90H19V110H20H21V90H20ZM20 110V109H0V110V111H20V110ZM0 110H1V90H0H-1V110H0Z" fill="#D9D9D9" fill-opacity="0.35" mask="url(#path-17-inside-4_1_3440)"/>
<rect x="8" y="98" width="4" height="4" rx="2" fill="white"/>
</g>
<defs>
<filter id="filter0_i_1_3440" x="0" y="0" width="110" height="110" filterUnits="userSpaceOnUse" color-interpolation-filters="sRGB">
<feFlood flood-opacity="0" result="BackgroundImageFix"/>
<feBlend mode="normal" in="SourceGraphic" in2="BackgroundImageFix" result="shape"/>
<feColorMatrix in="SourceAlpha" type="matrix" values="0 0 0 0 0 0 0 0 0 0 0 0 0 0 0 0 0 0 127 0" result="hardAlpha"/>
<feMorphology radius="1" operator="erode" in="SourceAlpha" result="effect1_innerShadow_1_3440"/>
<feOffset/>
<feGaussianBlur stdDeviation="7.9"/>
<feComposite in2="hardAlpha" operator="arithmetic" k2="-1" k3="1"/>
<feColorMatrix type="matrix" values="0 0 0 0 0.85098 0 0 0 0 0.85098 0 0 0 0 0.85098 0 0 0 0.35 0"/>
<feBlend mode="normal" in2="shape" result="effect1_innerShadow_1_3440"/>
</filter>
<filter id="filter1_i_1_3440" x="0" y="0" width="20" height="20" filterUnits="userSpaceOnUse" color-interpolation-filters="sRGB">
<feFlood flood-opacity="0" result="BackgroundImageFix"/>
<feBlend mode="normal" in="SourceGraphic" in2="BackgroundImageFix" result="shape"/>
<feColorMatrix in="SourceAlpha" type="matrix" values="0 0 0 0 0 0 0 0 0 0 0 0 0 0 0 0 0 0 127 0" result="hardAlpha"/>
<feMorphology radius="1" operator="erode" in="SourceAlpha" result="effect1_innerShadow_1_3440"/>
<feOffset/>
<feGaussianBlur stdDeviation="7.9"/>
<feComposite in2="hardAlpha" operator="arithmetic" k2="-1" k3="1"/>
<feColorMatrix type="matrix" values="0 0 0 0 0.85098 0 0 0 0 0.85098 0 0 0 0 0.85098 0 0 0 0.35 0"/>
<feBlend mode="normal" in2="shape" result="effect1_innerShadow_1_3440"/>
</filter>
<filter id="filter2_i_1_3440" x="90" y="90" width="20" height="20" filterUnits="userSpaceOnUse" color-interpolation-filters="sRGB">
<feFlood flood-opacity="0" result="BackgroundImageFix"/>
<feBlend mode="normal" in="SourceGraphic" in2="BackgroundImageFix" result="shape"/>
<feColorMatrix in="SourceAlpha" type="matrix" values="0 0 0 0 0 0 0 0 0 0 0 0 0 0 0 0 0 0 127 0" result="hardAlpha"/>
<feMorphology radius="1" operator="erode" in="SourceAlpha" result="effect1_innerShadow_1_3440"/>
<feOffset/>
<feGaussianBlur stdDeviation="7.9"/>
<feComposite in2="hardAlpha" operator="arithmetic" k2="-1" k3="1"/>
<feColorMatrix type="matrix" values="0 0 0 0 0.85098 0 0 0 0 0.85098 0 0 0 0 0.85098 0 0 0 0.35 0"/>
<feBlend mode="normal" in2="shape" result="effect1_innerShadow_1_3440"/>
</filter>
<filter id="filter3_i_1_3440" x="90" y="0" width="20" height="20" filterUnits="userSpaceOnUse" color-interpolation-filters="sRGB">
<feFlood flood-opacity="0" result="BackgroundImageFix"/>
<feBlend mode="normal" in="SourceGraphic" in2="BackgroundImageFix" result="shape"/>
<feColorMatrix in="SourceAlpha" type="matrix" values="0 0 0 0 0 0 0 0 0 0 0 0 0 0 0 0 0 0 127 0" result="hardAlpha"/>
<feMorphology radius="1" operator="erode" in="SourceAlpha" result="effect1_innerShadow_1_3440"/>
<feOffset/>
<feGaussianBlur stdDeviation="7.9"/>
<feComposite in2="hardAlpha" operator="arithmetic" k2="-1" k3="1"/>
<feColorMatrix type="matrix" values="0 0 0 0 0.85098 0 0 0 0 0.85098 0 0 0 0 0.85098 0 0 0 0.35 0"/>
<feBlend mode="normal" in2="shape" result="effect1_innerShadow_1_3440"/>
</filter>
<filter id="filter4_i_1_3440" x="0" y="90" width="20" height="20" filterUnits="userSpaceOnUse" color-interpolation-filters="sRGB">
<feFlood flood-opacity="0" result="BackgroundImageFix"/>
<feBlend mode="normal" in="SourceGraphic" in2="BackgroundImageFix" result="shape"/>
<feColorMatrix in="SourceAlpha" type="matrix" values="0 0 0 0 0 0 0 0 0 0 0 0 0 0 0 0 0 0 127 0" result="hardAlpha"/>
<feMorphology radius="1" operator="erode" in="SourceAlpha" result="effect1_innerShadow_1_3440"/>
<feOffset/>
<feGaussianBlur stdDeviation="7.9"/>
<feComposite in2="hardAlpha" operator="arithmetic" k2="-1" k3="1"/>
<feColorMatrix type="matrix" values="0 0 0 0 0.85098 0 0 0 0 0.85098 0 0 0 0 0.85098 0 0 0 0.35 0"/>
<feBlend mode="normal" in2="shape" result="effect1_innerShadow_1_3440"/>
</filter>
<linearGradient id="paint0_linear_1_3440" x1="54.8943" y1="35.5371" x2="54.8943" y2="73.8278" gradientUnits="userSpaceOnUse">
<stop stop-color="#F4F7F5"/>
<stop offset="1" stop-opacity="0"/>
</linearGradient>
<linearGradient id="paint1_linear_1_3440" x1="54.8962" y1="25.9629" x2="54.8962" y2="83.3988" gradientUnits="userSpaceOnUse">
<stop stop-color="#004AAD"/>
<stop offset="0.307692" stop-color="#0097B2"/>
<stop offset="1" stop-color="#29D9C2"/>
</linearGradient>
<clipPath id="clip0_1_3440">
<rect width="51" height="51" fill="white" transform="translate(29.5 29.5)"/>
</clipPath>
</defs>
</svg>
