<svg width="29" height="29" viewBox="0 0 29 29" fill="none" xmlns="http://www.w3.org/2000/svg">
<g clip-path="url(#clip0_1_3326)">
<path d="M19.666 27V23.933C19.666 22.44 19.666 21.693 19.957 21.123C20.212 20.621 20.62 20.213 21.122 19.957C21.693 19.667 22.439 19.667 23.933 19.667H27M7.66599 7.66699H18.333M7.66599 13H15.666M7.66599 18.333H10.333M18.562 27.667H13.8C9.31899 27.667 7.079 27.667 5.368 26.795C3.862 26.028 2.63799 24.804 1.87099 23.299C0.999987 21.587 1 19.347 1 14.867V13.8C1 9.31999 0.999987 7.07901 1.87099 5.36801C2.63799 3.86301 3.862 2.63901 5.368 1.87201C7.079 1.00001 9.31899 1 13.8 1H14.866C19.347 1 21.587 1.00001 23.298 1.87201C24.803 2.63901 26.027 3.86301 26.794 5.36801C27.666 7.07901 27.666 9.31999 27.666 13.8V18.562C27.666 19.012 27.666 19.237 27.654 19.453C27.556 21.273 26.838 23.005 25.621 24.362C25.476 24.523 25.317 24.682 25 25C24.682 25.318 24.523 25.477 24.361 25.622C23.004 26.839 21.273 27.556 19.453 27.655C19.236 27.667 19.011 27.667 18.562 27.667Z" stroke="url(#paint0_linear_1_3326)" stroke-width="2" stroke-linecap="round" stroke-linejoin="round"/>
</g>
<defs>
<linearGradient id="paint0_linear_1_3326" x1="14.333" y1="1" x2="14.333" y2="27.667" gradientUnits="userSpaceOnUse">
<stop stop-color="#004AAD"/>
<stop offset="0.307692" stop-color="#0097B2"/>
<stop offset="1" stop-color="#29D9C2"/>
</linearGradient>
<clipPath id="clip0_1_3326">
<rect width="29" height="29" fill="white"/>
</clipPath>
</defs>
</svg>
