<svg width="29" height="29" viewBox="0 0 29 29" fill="none" xmlns="http://www.w3.org/2000/svg">
<g clip-path="url(#clip0_1_3343)">
<path d="M19.8889 9C22.1655 9 23.3038 9 24.212 9.342C25.6494 9.883 26.7838 11.017 27.3248 12.455C27.6667 13.363 27.6667 14.501 27.6667 16.778V19.133C27.6667 22.12 27.6667 23.614 27.0854 24.755C26.574 25.758 25.7581 26.574 24.7546 27.085C23.6138 27.667 22.1203 27.667 19.1333 27.667H16.7778C14.5012 27.667 13.3629 27.667 12.4547 27.325C11.0173 26.784 9.8828 25.649 9.3418 24.212C9 23.304 9 22.165 9 19.889M9.5333 19.667H11.1333C14.1203 19.667 15.6138 19.667 16.7546 19.085C17.7582 18.574 18.574 17.758 19.0854 16.755C19.6667 15.614 19.6667 14.12 19.6667 11.133V9.533C19.6667 6.546 19.6667 5.053 19.0854 3.912C18.574 2.909 17.7582 2.09299 16.7546 1.58099C15.6138 0.999994 14.1203 1 11.1333 1H9.5333C6.5464 1 5.0529 0.999994 3.9121 1.58099C2.9085 2.09299 2.0926 2.909 1.5813 3.912C1 5.053 1 6.546 1 9.533V11.133C1 14.12 1 15.614 1.5813 16.755C2.0926 17.758 2.9085 18.574 3.9121 19.085C5.0529 19.667 6.5464 19.667 9.5333 19.667Z" stroke="url(#paint0_linear_1_3343)" stroke-width="2" stroke-linecap="round" stroke-linejoin="round"/>
</g>
<defs>
<linearGradient id="paint0_linear_1_3343" x1="14.3334" y1="1" x2="14.3334" y2="27.667" gradientUnits="userSpaceOnUse">
<stop stop-color="#004AAD"/>
<stop offset="0.307692" stop-color="#0097B2"/>
<stop offset="1" stop-color="#29D9C2"/>
</linearGradient>
<clipPath id="clip0_1_3343">
<rect width="29" height="29" fill="white"/>
</clipPath>
</defs>
</svg>
