<svg width="82" height="82" viewBox="0 0 82 82" fill="none" xmlns="http://www.w3.org/2000/svg">
<mask id="path-1-inside-1_1_3203" fill="white">
<path d="M0 41C0 18.3563 18.3563 0 41 0C63.6437 0 82 18.3563 82 41C82 63.6437 63.6437 82 41 82C18.3563 82 0 63.6437 0 41Z"/>
</mask>
<path d="M0 41C0 18.3563 18.3563 0 41 0C63.6437 0 82 18.3563 82 41C82 63.6437 63.6437 82 41 82C18.3563 82 0 63.6437 0 41Z" fill="url(#paint0_linear_1_3203)"/>
<path d="M0 41M82 41M82 41M0 41M41 0M82 41M41 82M0 41M41 82V81C18.9086 81 1 63.0914 1 41H0H-1C-1 64.196 17.804 83 41 83V82ZM82 41H81C81 63.0914 63.0914 81 41 81V82V83C64.196 83 83 64.196 83 41H82ZM41 0V1C63.0914 1 81 18.9086 81 41H82H83C83 17.804 64.196 -1 41 -1V0ZM41 0V-1C17.804 -1 -1 17.804 -1 41H0H1C1 18.9086 18.9086 1 41 1V0Z" fill="#29D9C2" mask="url(#path-1-inside-1_1_3203)"/>
<rect x="2" y="2" width="78" height="78" rx="39" fill="#131313"/>
<g clip-path="url(#clip0_1_3203)">
<mask id="mask0_1_3203" style="mask-type:luminance" maskUnits="userSpaceOnUse" x="22" y="22" width="38" height="38">
<path d="M59.5 22.5H22.5V59.5H59.5V22.5Z" fill="white"/>
</mask>
<g mask="url(#mask0_1_3203)">
<path d="M36.9917 53.2871C36.9917 53.2871 36.93 53.2871 36.8838 53.2871C28.8208 52.7475 22.5 45.995 22.5 37.9167C22.5 29.4221 29.4221 22.5 37.9167 22.5C46.4113 22.5 53.3333 29.4221 53.3333 37.9167V38.1787C53.2717 39.0112 52.5625 39.7204 51.7146 39.6742C50.8821 39.6279 50.2192 38.9958 50.25 38.1633C50.25 38.1325 50.25 37.9937 50.25 37.9629C50.25 31.1179 44.7154 25.5833 37.9167 25.5833C31.1179 25.5833 25.5833 31.1179 25.5833 37.9167C25.5833 44.7154 30.64 49.7875 37.0996 50.2037C37.9475 50.2654 38.595 50.99 38.5333 51.8379C38.4717 52.655 37.8088 53.2717 36.9917 53.2717V53.2871Z" fill="white"/>
<path d="M44.5913 59.5004C44.5913 59.5004 44.4988 59.5004 44.4525 59.5004C43.7742 59.4388 43.2192 58.9454 43.0805 58.2825L39.3034 40.2142C39.18 39.6592 39.3805 39.0888 39.8275 38.7188C40.2592 38.3488 40.8605 38.2563 41.3846 38.4721L58.528 45.3325C59.16 45.5792 59.5455 46.2113 59.4838 46.8896C59.4221 47.5679 58.9442 48.1229 58.2813 48.2617C55.8609 48.7858 53.2709 50.1271 51.0046 52.0388C48.7384 53.9504 46.9655 56.2629 46.025 58.56C45.7938 59.1458 45.2234 59.5158 44.6067 59.5158L44.5913 59.5004ZM42.9109 42.3879L45.2696 53.6575C46.318 52.2238 47.5821 50.8671 49.0159 49.6646C50.4496 48.4621 52.0067 47.4446 53.61 46.6738L42.9109 42.3879Z" fill="white"/>
</g>
</g>
<defs>
<linearGradient id="paint0_linear_1_3203" x1="41" y1="0" x2="41" y2="82" gradientUnits="userSpaceOnUse">
<stop stop-color="#004AAD"/>
<stop offset="0.307692" stop-color="#0097B2"/>
<stop offset="1" stop-color="#29D9C2"/>
</linearGradient>
<clipPath id="clip0_1_3203">
<rect width="37" height="37" fill="white" transform="translate(22.5 22.5)"/>
</clipPath>
</defs>
</svg>
