<svg width="82" height="82" viewBox="0 0 82 82" fill="none" xmlns="http://www.w3.org/2000/svg">
<mask id="path-1-inside-1_1_3274" fill="white">
<path d="M0 41C0 18.3563 18.3563 0 41 0C63.6437 0 82 18.3563 82 41C82 63.6437 63.6437 82 41 82C18.3563 82 0 63.6437 0 41Z"/>
</mask>
<path d="M0 41C0 18.3563 18.3563 0 41 0C63.6437 0 82 18.3563 82 41C82 63.6437 63.6437 82 41 82C18.3563 82 0 63.6437 0 41Z" fill="url(#paint0_linear_1_3274)"/>
<path d="M0 41M82 41M82 41M0 41M41 0M82 41M41 82M0 41M41 82V81C18.9086 81 1 63.0914 1 41H0H-1C-1 64.196 17.804 83 41 83V82ZM82 41H81C81 63.0914 63.0914 81 41 81V82V83C64.196 83 83 64.196 83 41H82ZM41 0V1C63.0914 1 81 18.9086 81 41H82H83C83 17.804 64.196 -1 41 -1V0ZM41 0V-1C17.804 -1 -1 17.804 -1 41H0H1C1 18.9086 18.9086 1 41 1V0Z" fill="#29D9C2" mask="url(#path-1-inside-1_1_3274)"/>
<rect x="2" y="2" width="78" height="78" rx="39" fill="#131313"/>
<path fill-rule="evenodd" clip-rule="evenodd" d="M25.6243 23.5C24.6809 23.5 23.916 24.2835 23.916 25.25V32.25C23.916 33.2165 24.6809 34 25.6243 34H27.3327V48H25.6243C24.6809 48 23.916 48.7835 23.916 49.75V56.75C23.916 57.7165 24.6809 58.5 25.6243 58.5H32.4577C33.4012 58.5 34.166 57.7165 34.166 56.75V55H47.8327V56.75C47.8327 57.7165 48.5975 58.5 49.541 58.5H56.3743C57.3179 58.5 58.0827 57.7165 58.0827 56.75V49.75C58.0827 48.7835 57.3179 48 56.3743 48H54.666V34H56.3743C57.3179 34 58.0827 33.2165 58.0827 32.25V25.25C58.0827 24.2835 57.3179 23.5 56.3743 23.5H49.541C48.5975 23.5 47.8327 24.2835 47.8327 25.25V27H34.166V25.25C34.166 24.2835 33.4012 23.5 32.4577 23.5H25.6243ZM29.041 51.5H27.3327V55H30.7493V53.25V51.5H29.041ZM30.7493 48V34H32.4577C33.4012 34 34.166 33.2165 34.166 32.25V30.5H47.8327V32.25C47.8327 33.2165 48.5975 34 49.541 34H51.2493V48H49.541C48.5975 48 47.8327 48.7835 47.8327 49.75V51.5H34.166V49.75C34.166 48.7835 33.4012 48 32.4577 48H30.7493ZM29.041 30.5H30.7493V28.75V27H27.3327V30.5H29.041ZM51.2493 51.5H52.9577H54.666V55H51.2493V53.25V51.5ZM54.666 30.5H52.9577H51.2493V28.75V27H54.666V30.5Z" fill="white"/>
<defs>
<linearGradient id="paint0_linear_1_3274" x1="0" y1="41" x2="82" y2="41" gradientUnits="userSpaceOnUse">
<stop stop-color="#7F2191"/>
<stop offset="0.5" stop-color="#004AAD"/>
<stop offset="1" stop-color="#29D9C2"/>
</linearGradient>
</defs>
</svg>
