<svg width="82" height="82" viewBox="0 0 82 82" fill="none" xmlns="http://www.w3.org/2000/svg">
<mask id="path-1-inside-1_1_3271" fill="white">
<path d="M0 41C0 18.3563 18.3563 0 41 0C63.6437 0 82 18.3563 82 41C82 63.6437 63.6437 82 41 82C18.3563 82 0 63.6437 0 41Z"/>
</mask>
<path d="M0 41C0 18.3563 18.3563 0 41 0C63.6437 0 82 18.3563 82 41C82 63.6437 63.6437 82 41 82C18.3563 82 0 63.6437 0 41Z" fill="url(#paint0_linear_1_3271)"/>
<path d="M0 41M82 41M82 41M0 41M41 0M82 41M41 82M0 41M41 82V81C18.9086 81 1 63.0914 1 41H0H-1C-1 64.196 17.804 83 41 83V82ZM82 41H81C81 63.0914 63.0914 81 41 81V82V83C64.196 83 83 64.196 83 41H82ZM41 0V1C63.0914 1 81 18.9086 81 41H82H83C83 17.804 64.196 -1 41 -1V0ZM41 0V-1C17.804 -1 -1 17.804 -1 41H0H1C1 18.9086 18.9086 1 41 1V0Z" fill="#29D9C2" mask="url(#path-1-inside-1_1_3271)"/>
<rect x="2" y="2" width="78" height="78" rx="39" fill="#131313"/>
<g clip-path="url(#clip0_1_3271)">
<mask id="mask0_1_3271" style="mask-type:luminance" maskUnits="userSpaceOnUse" x="20" y="21" width="42" height="40">
<path d="M20.5 21H61.5V61H20.5V21Z" fill="white"/>
</mask>
<g mask="url(#mask0_1_3271)">
<path d="M40.998 22.563L45.766 27.2147L40.998 31.8663" stroke="white" stroke-width="3" stroke-miterlimit="10" stroke-linecap="round" stroke-linejoin="round"/>
<path d="M45.7743 27.1847C35.3203 24.3812 25.7879 31.1489 24.334 40.5049" stroke="white" stroke-width="3" stroke-miterlimit="10" stroke-linecap="round" stroke-linejoin="round"/>
<path d="M22.8613 53.2044L24.6069 46.8501L31.1216 48.5527" stroke="white" stroke-width="3" stroke-miterlimit="10" stroke-linecap="round" stroke-linejoin="round"/>
<path d="M24.5801 46.8579C27.3185 57.0923 38.0923 61.7624 47.1242 58.3129" stroke="white" stroke-width="3" stroke-miterlimit="10" stroke-linecap="round" stroke-linejoin="round"/>
<path d="M59.1373 53.2049L52.6226 54.9075L50.877 48.5532" stroke="white" stroke-width="3" stroke-miterlimit="10" stroke-linecap="round" stroke-linejoin="round"/>
<path d="M52.6408 54.9289C60.3564 47.498 59.1151 36.0602 51.5371 30.1538" stroke="white" stroke-width="3" stroke-miterlimit="10" stroke-linecap="round" stroke-linejoin="round"/>
</g>
</g>
<defs>
<linearGradient id="paint0_linear_1_3271" x1="41" y1="0" x2="41" y2="82" gradientUnits="userSpaceOnUse">
<stop stop-color="#004AAD"/>
<stop offset="0.307692" stop-color="#0097B2"/>
<stop offset="1" stop-color="#29D9C2"/>
</linearGradient>
<clipPath id="clip0_1_3271">
<rect width="41" height="40" fill="white" transform="translate(20.5 21)"/>
</clipPath>
</defs>
</svg>
