<svg width="82" height="82" viewBox="0 0 82 82" fill="none" xmlns="http://www.w3.org/2000/svg">
<mask id="path-1-inside-1_1_3222" fill="white">
<path d="M0 41C0 18.3563 18.3563 0 41 0C63.6437 0 82 18.3563 82 41C82 63.6437 63.6437 82 41 82C18.3563 82 0 63.6437 0 41Z"/>
</mask>
<path d="M0 41C0 18.3563 18.3563 0 41 0C63.6437 0 82 18.3563 82 41C82 63.6437 63.6437 82 41 82C18.3563 82 0 63.6437 0 41Z" fill="url(#paint0_linear_1_3222)"/>
<path d="M0 41M82 41M82 41M0 41M41 0M82 41M41 82M0 41M41 82V81C18.9086 81 1 63.0914 1 41H0H-1C-1 64.196 17.804 83 41 83V82ZM82 41H81C81 63.0914 63.0914 81 41 81V82V83C64.196 83 83 64.196 83 41H82ZM41 0V1C63.0914 1 81 18.9086 81 41H82H83C83 17.804 64.196 -1 41 -1V0ZM41 0V-1C17.804 -1 -1 17.804 -1 41H0H1C1 18.9086 18.9086 1 41 1V0Z" fill="#29D9C2" mask="url(#path-1-inside-1_1_3222)"/>
<rect x="2" y="2" width="78" height="78" rx="39" fill="#131313"/>
<path d="M51.2199 26.8906H42.7578V24.4719C42.7578 24.2224 42.6541 23.9831 42.4695 23.8067C42.2849 23.6303 42.0345 23.5312 41.7734 23.5312H40.2266C39.9655 23.5312 39.7151 23.6303 39.5305 23.8067C39.3459 23.9831 39.2422 24.2224 39.2422 24.4719V26.8906H30.7801C29.0153 26.8915 27.3231 27.5618 26.0753 28.7542C24.8274 29.9466 24.1259 31.5636 24.125 33.2499V37.0393C24.125 41.2081 25.8581 45.2062 28.943 48.154C32.0279 51.1018 36.2119 52.7578 40.5746 52.7578H41.7734C42.0345 52.7578 42.2849 52.6587 42.4695 52.4823C42.6541 52.3059 42.7578 52.0667 42.7578 51.8172V50.3391C42.7578 50.0896 42.6541 49.8503 42.4695 49.6739C42.2849 49.4975 42.0345 49.3984 41.7734 49.3984H40.5746C37.1443 49.3984 33.8545 48.0963 31.4289 45.7785C29.0033 43.4607 27.6406 40.3171 27.6406 37.0393V33.2499C27.6406 32.4543 27.9714 31.6913 28.5601 31.1287C29.1489 30.5661 29.9474 30.25 30.7801 30.25H51.2199C52.0526 30.25 52.8511 30.5661 53.4398 31.1287C54.0286 31.6913 54.3594 32.4543 54.3594 33.2499V37.3047C54.3572 38.2264 54.2391 39.1444 54.0078 40.0392C53.9465 40.2698 53.9792 40.514 54.0993 40.7223C54.2195 40.9307 54.418 41.0876 54.6547 41.1613L56.1313 41.6215C56.2588 41.6619 56.3937 41.6769 56.5275 41.6655C56.6614 41.654 56.7913 41.6164 56.9094 41.555C57.0274 41.4936 57.1309 41.4096 57.2136 41.3084C57.2962 41.2071 57.3562 41.0907 57.3898 40.9664C57.7096 39.7697 57.8725 38.5397 57.875 37.3047V33.2499C57.8741 31.5636 57.1726 29.9466 55.9247 28.7542C54.6769 27.5618 52.9847 26.8915 51.2199 26.8906Z" fill="white"/>
<path d="M35.375 41C36.9283 41 38.1875 39.7968 38.1875 38.3125C38.1875 36.8282 36.9283 35.625 35.375 35.625C33.8217 35.625 32.5625 36.8282 32.5625 38.3125C32.5625 39.7968 33.8217 41 35.375 41Z" fill="white"/>
<path d="M46.625 41C48.1783 41 49.4375 39.7968 49.4375 38.3125C49.4375 36.8282 48.1783 35.625 46.625 35.625C45.0717 35.625 43.8125 36.8282 43.8125 38.3125C43.8125 39.7968 45.0717 41 46.625 41Z" fill="white"/>
<path d="M57.7798 50.6753L60.9649 51.8746C61.0305 51.8994 61.0868 51.9424 61.1264 51.9981C61.1661 52.0538 61.1873 52.1197 61.1873 52.187C61.1873 52.2544 61.1661 52.3202 61.1264 52.3759C61.0868 52.4317 61.0305 52.4747 60.9649 52.4995L57.7798 53.6987C57.2159 53.9118 56.7038 54.2331 56.2751 54.6427C55.8464 55.0524 55.5101 55.5418 55.2872 56.0805L54.0321 59.104C54.0062 59.1666 53.9612 59.2204 53.9029 59.2583C53.8445 59.2962 53.7757 59.3164 53.7052 59.3164C53.6346 59.3164 53.5658 59.2962 53.5075 59.2583C53.4492 59.2204 53.4041 59.1666 53.3782 59.104L52.1231 56.0805C51.9007 55.5415 51.5647 55.0518 51.1359 54.6421C50.7071 54.2324 50.1947 53.9113 49.6305 53.6987L46.4665 52.4995C46.4009 52.4747 46.3446 52.4317 46.305 52.3759C46.2653 52.3202 46.2441 52.2544 46.2441 52.187C46.2441 52.1197 46.2653 52.0538 46.305 51.9981C46.3446 51.9424 46.4009 51.8994 46.4665 51.8746L49.6305 50.6753C50.1947 50.4628 50.7071 50.1417 51.1359 49.732C51.5647 49.3222 51.9007 48.8326 52.1231 48.2935L53.3782 45.2701C53.4041 45.2074 53.4492 45.1537 53.5075 45.1158C53.5658 45.0779 53.6346 45.0576 53.7052 45.0576C53.7757 45.0576 53.8445 45.0779 53.9029 45.1158C53.9612 45.1537 54.0062 45.2074 54.0321 45.2701L55.2872 48.2935C55.5101 48.8323 55.8464 49.3216 56.2751 49.7313C56.7038 50.141 57.2159 50.4623 57.7798 50.6753Z" fill="white"/>
<defs>
<linearGradient id="paint0_linear_1_3222" x1="0" y1="41" x2="82" y2="41" gradientUnits="userSpaceOnUse">
<stop stop-color="#7F2191"/>
<stop offset="0.5" stop-color="#004AAD"/>
<stop offset="1" stop-color="#29D9C2"/>
</linearGradient>
</defs>
</svg>
