<svg width="82" height="82" viewBox="0 0 82 82" fill="none" xmlns="http://www.w3.org/2000/svg">
<mask id="path-1-inside-1_1_3151" fill="white">
<path d="M0 41C0 18.3563 18.3563 0 41 0C63.6437 0 82 18.3563 82 41C82 63.6437 63.6437 82 41 82C18.3563 82 0 63.6437 0 41Z"/>
</mask>
<path d="M0 41C0 18.3563 18.3563 0 41 0C63.6437 0 82 18.3563 82 41C82 63.6437 63.6437 82 41 82C18.3563 82 0 63.6437 0 41Z" fill="url(#paint0_linear_1_3151)"/>
<path d="M0 41M82 41M82 41M0 41M41 0M82 41M41 82M0 41M41 82V81C18.9086 81 1 63.0914 1 41H0H-1C-1 64.196 17.804 83 41 83V82ZM82 41H81C81 63.0914 63.0914 81 41 81V82V83C64.196 83 83 64.196 83 41H82ZM41 0V1C63.0914 1 81 18.9086 81 41H82H83C83 17.804 64.196 -1 41 -1V0ZM41 0V-1C17.804 -1 -1 17.804 -1 41H0H1C1 18.9086 18.9086 1 41 1V0Z" fill="#29D9C2" mask="url(#path-1-inside-1_1_3151)"/>
<rect x="7" y="7" width="68" height="68" rx="34" fill="#050416"/>
<g clip-path="url(#clip0_1_3151)">
<path d="M52.7335 34.2095C52.7192 33.4535 52.7054 32.7394 52.7054 32.0485C52.7054 31.5072 52.2668 31.0684 51.7254 31.0684C47.5339 31.0684 44.3427 29.8639 41.6826 27.2775C41.3021 26.9074 40.6965 26.9076 40.3161 27.2775C37.6564 29.8639 34.4656 31.0684 30.2745 31.0684C29.7332 31.0684 29.2944 31.5072 29.2944 32.0485C29.2944 32.7395 29.2808 33.4539 29.2663 34.21C29.132 41.2451 28.948 50.88 40.6784 54.946C40.7824 54.982 40.8909 55.0001 40.9993 55.0001C41.1078 55.0001 41.2164 54.982 41.3203 54.946C53.0516 50.8799 52.8679 41.2447 52.7335 34.2095ZM40.9995 52.98C30.9391 49.3253 31.0912 41.3195 31.2262 34.2474C31.2343 33.823 31.2421 33.4116 31.2476 33.0083C35.1731 32.8426 38.3122 31.6531 40.9995 29.3121C43.6869 31.6531 46.8266 32.8427 50.7523 33.0083C50.7578 33.4115 50.7657 33.8226 50.7738 34.2467C50.9086 41.3191 51.0606 49.3252 40.9995 52.98Z" fill="url(#paint1_linear_1_3151)" stroke="white" stroke-width="0.130676"/>
<path d="M44.3744 37.5953L39.6441 42.3254L37.6255 40.3069C37.2428 39.9243 36.6222 39.9243 36.2396 40.3069C35.8568 40.6898 35.8568 41.3102 36.2396 41.693L38.9511 44.4045C39.1424 44.5958 39.3933 44.6915 39.6441 44.6915C39.8949 44.6915 40.1458 44.5958 40.3371 44.4045L45.7603 38.9814C46.1431 38.5987 46.1431 37.9781 45.7604 37.5955C45.3778 37.2127 44.7572 37.2126 44.3744 37.5953Z" fill="url(#paint2_linear_1_3151)" stroke="white" stroke-width="0.130676"/>
</g>
<defs>
<linearGradient id="paint0_linear_1_3151" x1="41" y1="0" x2="41" y2="82" gradientUnits="userSpaceOnUse">
<stop stop-color="#004AAD"/>
<stop offset="0.307692" stop-color="#0097B2"/>
<stop offset="1" stop-color="#29D9C2"/>
</linearGradient>
<linearGradient id="paint1_linear_1_3151" x1="40.9999" y1="27" x2="40.9999" y2="55.0001" gradientUnits="userSpaceOnUse">
<stop stop-color="#004AAD"/>
<stop offset="0.307692" stop-color="#0097B2"/>
<stop offset="1" stop-color="#29D9C2"/>
</linearGradient>
<linearGradient id="paint2_linear_1_3151" x1="41" y1="37.3083" x2="41" y2="44.6915" gradientUnits="userSpaceOnUse">
<stop stop-color="#004AAD"/>
<stop offset="0.307692" stop-color="#0097B2"/>
<stop offset="1" stop-color="#29D9C2"/>
</linearGradient>
<clipPath id="clip0_1_3151">
<rect width="28" height="28" fill="white" transform="translate(27 27)"/>
</clipPath>
</defs>
</svg>
