<svg width="82" height="82" viewBox="0 0 82 82" fill="none" xmlns="http://www.w3.org/2000/svg">
<mask id="path-1-inside-1_1_3140" fill="white">
<path d="M0 41C0 18.3563 18.3563 0 41 0C63.6437 0 82 18.3563 82 41C82 63.6437 63.6437 82 41 82C18.3563 82 0 63.6437 0 41Z"/>
</mask>
<path d="M0 41C0 18.3563 18.3563 0 41 0C63.6437 0 82 18.3563 82 41C82 63.6437 63.6437 82 41 82C18.3563 82 0 63.6437 0 41Z" fill="url(#paint0_linear_1_3140)"/>
<path d="M0 41M82 41M82 41M0 41M41 0M82 41M41 82M0 41M41 82V81C18.9086 81 1 63.0914 1 41H0H-1C-1 64.196 17.804 83 41 83V82ZM82 41H81C81 63.0914 63.0914 81 41 81V82V83C64.196 83 83 64.196 83 41H82ZM41 0V1C63.0914 1 81 18.9086 81 41H82H83C83 17.804 64.196 -1 41 -1V0ZM41 0V-1C17.804 -1 -1 17.804 -1 41H0H1C1 18.9086 18.9086 1 41 1V0Z" fill="#29D9C2" mask="url(#path-1-inside-1_1_3140)"/>
<rect x="7" y="7" width="68" height="68" rx="34" fill="#050416"/>
<path d="M51.1352 30.8637C50.882 30.6092 50.5809 30.4074 50.2493 30.2699C49.9177 30.1324 49.5621 30.0619 49.2031 30.0625H32.7969C32.0719 30.0632 31.3768 30.3515 30.8642 30.8642C30.3515 31.3768 30.0632 32.0719 30.0625 32.7969V43.7344C30.0632 44.4594 30.3515 45.1544 30.8642 45.6671C31.3768 46.1797 32.0719 46.468 32.7969 46.4688H36.2148C36.4268 46.4692 36.6358 46.5184 36.8257 46.6126C37.0158 46.7076 37.1811 46.8456 37.3086 47.0156L39.9062 50.4784C40.0333 50.6487 40.1988 50.7866 40.3891 50.8809C40.5787 50.9762 40.7879 51.0258 41 51.0258C41.2121 51.0258 41.4213 50.9762 41.6109 50.8809C41.8012 50.7866 41.9667 50.6487 42.0938 50.4784L44.6914 47.0156C44.8189 46.8456 44.9842 46.7076 45.1743 46.6126C45.3642 46.5184 45.5732 46.4692 45.7852 46.4688H49.2031C49.9281 46.468 50.6232 46.1797 51.1358 45.6671C51.6485 45.1544 51.9368 44.4594 51.9375 43.7344V32.7969C51.9362 32.0717 51.6478 31.3766 51.1352 30.8637ZM50.5703 43.7344C50.5693 44.0969 50.4253 44.4444 50.1695 44.7013C50.0428 44.8285 49.8922 44.9293 49.7263 44.998C49.5605 45.0667 49.3826 45.1019 49.2031 45.1016H45.7852C45.3608 45.1021 44.9423 45.2012 44.5627 45.391C44.1831 45.5808 43.8527 45.8561 43.5977 46.1953L41 49.6587L38.4023 46.1953C38.1473 45.8561 37.8169 45.5808 37.4373 45.391C37.0577 45.2012 36.6392 45.1021 36.2148 45.1016H32.7969C32.6174 45.1019 32.4395 45.0667 32.2737 44.998C32.1078 44.9293 31.9572 44.8285 31.8305 44.7013C31.5747 44.4444 31.4307 44.0969 31.4297 43.7344V32.7969C31.4307 32.4344 31.5747 32.0869 31.8305 31.83C31.9572 31.7028 32.1078 31.6019 32.2737 31.5332C32.4395 31.4645 32.6174 31.4293 32.7969 31.4297H49.2031C49.3826 31.4293 49.5605 31.4645 49.7263 31.5332C49.8922 31.6019 50.0428 31.7028 50.1695 31.83C50.4253 32.0869 50.5693 32.4344 50.5703 32.7969V43.7344Z" fill="url(#paint1_linear_1_3140)" stroke="url(#paint2_linear_1_3140)" stroke-width="0.0533333"/>
<path d="M35.5312 36.8984C35.3517 36.8981 35.1739 36.9333 35.0081 37.002C34.8422 37.0707 34.6916 37.1716 34.5649 37.2988C34.4379 37.4257 34.3372 37.5764 34.2685 37.7423C34.1997 37.9082 34.1644 38.0861 34.1644 38.2656C34.1644 38.4452 34.1997 38.623 34.2685 38.7889C34.3372 38.9548 34.4379 39.1055 34.5649 39.2325C34.8213 39.4886 35.1689 39.6325 35.5312 39.6325C35.8936 39.6325 36.2412 39.4886 36.4976 39.2325C36.6246 39.1055 36.7253 38.9548 36.794 38.7889C36.8628 38.623 36.8981 38.4452 36.8981 38.2656C36.8981 38.0861 36.8628 37.9082 36.794 37.7423C36.7253 37.5764 36.6246 37.4257 36.4976 37.2988C36.3709 37.1716 36.2203 37.0707 36.0544 37.002C35.8886 36.9333 35.7108 36.8981 35.5312 36.8984Z" fill="url(#paint3_linear_1_3140)" stroke="url(#paint4_linear_1_3140)" stroke-width="0.0533333"/>
<path d="M41 36.8984C40.8205 36.8981 40.6427 36.9333 40.4768 37.002C40.311 37.0707 40.1604 37.1716 40.0337 37.2988C39.9067 37.4257 39.8059 37.5764 39.7372 37.7423C39.6685 37.9082 39.6331 38.0861 39.6331 38.2656C39.6331 38.4452 39.6685 38.623 39.7372 38.7889C39.8059 38.9548 39.9067 39.1055 40.0337 39.2325C40.29 39.4886 40.6376 39.6325 41 39.6325C41.3624 39.6325 41.71 39.4886 41.9663 39.2325C42.0933 39.1055 42.1941 38.9548 42.2628 38.7889C42.3315 38.623 42.3669 38.4452 42.3669 38.2656C42.3669 38.0861 42.3315 37.9082 42.2628 37.7423C42.1941 37.5764 42.0933 37.4257 41.9663 37.2988C41.8396 37.1716 41.689 37.0707 41.5232 37.002C41.3573 36.9333 41.1795 36.8981 41 36.8984Z" fill="url(#paint5_linear_1_3140)" stroke="url(#paint6_linear_1_3140)" stroke-width="0.0533333"/>
<path d="M46.4687 36.8984C46.2892 36.8981 46.1114 36.9333 45.9456 37.002C45.7797 37.0707 45.6291 37.1716 45.5024 37.2988C45.3754 37.4257 45.2747 37.5764 45.206 37.7423C45.1372 37.9082 45.1019 38.0861 45.1019 38.2656C45.1019 38.4452 45.1372 38.623 45.206 38.7889C45.2747 38.9548 45.3754 39.1055 45.5024 39.2325C45.7588 39.4886 46.1064 39.6325 46.4687 39.6325C46.8311 39.6325 47.1787 39.4886 47.4351 39.2325C47.5621 39.1055 47.6628 38.9548 47.7315 38.7889C47.8003 38.623 47.8356 38.4452 47.8356 38.2656C47.8356 38.0861 47.8003 37.9082 47.7315 37.7423C47.6628 37.5764 47.5621 37.4257 47.4351 37.2988C47.3084 37.1716 47.1578 37.0707 46.9919 37.002C46.8261 36.9333 46.6483 36.8981 46.4687 36.8984Z" fill="url(#paint7_linear_1_3140)" stroke="url(#paint8_linear_1_3140)" stroke-width="0.0533333"/>
<defs>
<linearGradient id="paint0_linear_1_3140" x1="41" y1="0" x2="41" y2="82" gradientUnits="userSpaceOnUse">
<stop stop-color="#004AAD"/>
<stop offset="0.307692" stop-color="#0097B2"/>
<stop offset="1" stop-color="#29D9C2"/>
</linearGradient>
<linearGradient id="paint1_linear_1_3140" x1="41" y1="30.0625" x2="41" y2="51.0258" gradientUnits="userSpaceOnUse">
<stop stop-color="#004AAD"/>
<stop offset="0.307692" stop-color="#0097B2"/>
<stop offset="1" stop-color="#29D9C2"/>
</linearGradient>
<linearGradient id="paint2_linear_1_3140" x1="41" y1="30.0625" x2="41" y2="51.0258" gradientUnits="userSpaceOnUse">
<stop stop-color="#004AAD"/>
<stop offset="0.307692" stop-color="#0097B2"/>
<stop offset="1" stop-color="#29D9C2"/>
</linearGradient>
<linearGradient id="paint3_linear_1_3140" x1="35.5312" y1="36.8984" x2="35.5312" y2="39.6325" gradientUnits="userSpaceOnUse">
<stop stop-color="#004AAD"/>
<stop offset="0.307692" stop-color="#0097B2"/>
<stop offset="1" stop-color="#29D9C2"/>
</linearGradient>
<linearGradient id="paint4_linear_1_3140" x1="35.5312" y1="36.8984" x2="35.5312" y2="39.6325" gradientUnits="userSpaceOnUse">
<stop stop-color="#004AAD"/>
<stop offset="0.307692" stop-color="#0097B2"/>
<stop offset="1" stop-color="#29D9C2"/>
</linearGradient>
<linearGradient id="paint5_linear_1_3140" x1="41" y1="36.8984" x2="41" y2="39.6325" gradientUnits="userSpaceOnUse">
<stop stop-color="#004AAD"/>
<stop offset="0.307692" stop-color="#0097B2"/>
<stop offset="1" stop-color="#29D9C2"/>
</linearGradient>
<linearGradient id="paint6_linear_1_3140" x1="41" y1="36.8984" x2="41" y2="39.6325" gradientUnits="userSpaceOnUse">
<stop stop-color="#004AAD"/>
<stop offset="0.307692" stop-color="#0097B2"/>
<stop offset="1" stop-color="#29D9C2"/>
</linearGradient>
<linearGradient id="paint7_linear_1_3140" x1="46.4687" y1="36.8984" x2="46.4687" y2="39.6325" gradientUnits="userSpaceOnUse">
<stop stop-color="#004AAD"/>
<stop offset="0.307692" stop-color="#0097B2"/>
<stop offset="1" stop-color="#29D9C2"/>
</linearGradient>
<linearGradient id="paint8_linear_1_3140" x1="46.4687" y1="36.8984" x2="46.4687" y2="39.6325" gradientUnits="userSpaceOnUse">
<stop stop-color="#004AAD"/>
<stop offset="0.307692" stop-color="#0097B2"/>
<stop offset="1" stop-color="#29D9C2"/>
</linearGradient>
</defs>
</svg>
