<svg width="29" height="29" viewBox="0 0 29 29" fill="none" xmlns="http://www.w3.org/2000/svg">
<g clip-path="url(#clip0_3787_8927)">
<path fill-rule="evenodd" clip-rule="evenodd" d="M19.269 0.728007C19.1692 0.302172 18.7787 0 18.3284 0C17.878 0 17.4876 0.302172 17.3878 0.728007L16.854 3.00406C16.7919 3.26903 16.6917 3.51938 16.5593 3.74952C14.5156 2.37853 12.4512 1.35182 10.5051 0.722759C7.11816 -0.37201 3.77601 -0.343307 1.71102 1.65911C-0.353972 3.66153 -0.383567 6.90239 0.745409 10.1867C1.17322 11.4313 1.77939 12.7257 2.54812 14.0312C1.77939 15.3369 1.17322 16.6312 0.745409 17.8758C-0.383567 21.1602 -0.353972 24.401 1.71102 26.4034C3.77601 28.4058 7.11816 28.4345 10.5051 27.3398C11.7885 26.9249 13.1234 26.3371 14.4698 25.5917C15.8162 26.3371 17.151 26.9249 18.4345 27.3398C21.8214 28.4345 25.1636 28.4058 27.2285 26.4034C29.2935 24.401 29.3232 21.1602 28.1942 17.8758C27.7664 16.6312 27.1601 15.3369 26.3914 14.0312C27.1601 12.7257 27.7664 11.4313 28.1942 10.1867C29.3232 6.90239 29.2935 3.66153 27.2285 1.65911C26.8518 1.2938 26.2411 1.2938 25.8644 1.65911C25.4876 2.02441 25.4876 2.61669 25.8644 2.98199C27.1342 4.2134 27.4204 6.52172 26.3639 9.59513C26.0746 10.4367 25.6906 11.3134 25.2166 12.2085C24.2276 10.797 23.0577 9.39345 21.7269 8.04617C21.8106 8.0197 21.896 7.99678 21.983 7.97761L24.3302 7.46004C24.7693 7.36323 25.0809 6.98462 25.0809 6.54792C25.0809 6.11122 24.7693 5.73261 24.3302 5.63579L21.983 5.11823C20.8973 4.87885 20.0496 4.05681 19.8027 3.00406L19.269 0.728007ZM20.1904 9.19617C20.0114 9.46614 19.8787 9.76799 19.8027 10.0918L19.269 12.3679C19.1692 12.7937 18.7787 13.0958 18.3284 13.0958C17.878 13.0958 17.4876 12.7937 17.3878 12.3679L16.854 10.0918C16.6071 9.03902 15.7595 8.21698 14.6737 7.97761L12.3266 7.46004C11.8875 7.36323 11.5758 6.98462 11.5758 6.54792C11.5758 6.11122 11.8875 5.73261 12.3266 5.63579L14.6737 5.11823C14.7998 5.09044 14.9227 5.05476 15.0418 5.01182C13.2742 3.87113 11.5213 3.02325 9.89497 2.49759C6.72559 1.47313 4.34513 1.75059 3.07524 2.98199C1.80535 4.2134 1.51923 6.52172 2.5757 9.59513C2.86502 10.4367 3.24898 11.3134 3.72298 12.2085C4.84289 10.6102 6.1946 9.02209 7.74938 7.51444C8.12607 7.14916 8.73683 7.14916 9.11358 7.51444C9.49031 7.87976 9.49031 8.47202 9.11358 8.83735C7.37934 10.519 5.9301 12.2887 4.79798 14.0312C5.9301 15.7739 7.37934 17.5436 9.11358 19.2252C10.8478 20.9068 12.6727 22.3122 14.4698 23.41C16.2668 22.3122 18.0918 20.9068 19.826 19.2252C21.5603 17.5436 23.0095 15.7739 24.1416 14.0312C23.0897 12.4121 21.7641 10.7697 20.1904 9.19617ZM16.2247 6.54792C17.1294 6.10018 17.8667 5.38529 18.3284 4.50796C18.7901 5.38529 19.5273 6.10018 20.4321 6.54792C19.5273 6.99565 18.7901 7.71055 18.3284 8.58787C17.8667 7.71055 17.1294 6.99565 16.2247 6.54792ZM25.2166 15.8541C24.0967 17.4523 22.745 19.0404 21.1902 20.5481C19.6355 22.0557 17.9977 23.3664 16.3495 24.4524C17.2726 24.912 18.1767 25.2844 19.0446 25.5649C22.214 26.5894 24.5945 26.312 25.8644 25.0806C27.1342 23.8491 27.4204 21.5408 26.3639 18.4675C26.0746 17.6258 25.6906 16.7492 25.2166 15.8541ZM12.59 24.4524C10.9419 23.3664 9.3041 22.0557 7.74938 20.5481C6.1946 19.0404 4.84289 17.4523 3.72298 15.8541C3.24898 16.7492 2.86502 17.6258 2.5757 18.4675C1.51923 21.5408 1.80535 23.8491 3.07524 25.0806C4.34513 26.312 6.72559 26.5894 9.89497 25.5649C10.7629 25.2844 11.6669 24.912 12.59 24.4524Z" fill="white"/>
</g>
<defs>
<clipPath id="clip0_3787_8927">
<rect width="29" height="28.0625" fill="white"/>
</clipPath>
</defs>
</svg>
