<svg width="82" height="82" viewBox="0 0 82 82" fill="none" xmlns="http://www.w3.org/2000/svg">
<mask id="path-1-inside-1_1_3162" fill="white">
<path d="M0 41C0 18.3563 18.3563 0 41 0C63.6437 0 82 18.3563 82 41C82 63.6437 63.6437 82 41 82C18.3563 82 0 63.6437 0 41Z"/>
</mask>
<path d="M0 41C0 18.3563 18.3563 0 41 0C63.6437 0 82 18.3563 82 41C82 63.6437 63.6437 82 41 82C18.3563 82 0 63.6437 0 41Z" fill="url(#paint0_linear_1_3162)"/>
<path d="M0 41M82 41M82 41M0 41M41 0M82 41M41 82M0 41M41 82V81C18.9086 81 1 63.0914 1 41H0H-1C-1 64.196 17.804 83 41 83V82ZM82 41H81C81 63.0914 63.0914 81 41 81V82V83C64.196 83 83 64.196 83 41H82ZM41 0V1C63.0914 1 81 18.9086 81 41H82H83C83 17.804 64.196 -1 41 -1V0ZM41 0V-1C17.804 -1 -1 17.804 -1 41H0H1C1 18.9086 18.9086 1 41 1V0Z" fill="#29D9C2" mask="url(#path-1-inside-1_1_3162)"/>
<rect x="7" y="7" width="68" height="68" rx="34" fill="#050416"/>
<g clip-path="url(#clip0_1_3162)">
<path d="M54.3197 39.3507L52.4101 37.441C51.9569 36.9878 51.5855 36.0911 51.5855 35.4495V32.7482C51.5855 31.4654 50.5362 30.4161 49.252 30.4147H46.5507C45.9092 30.4147 45.0125 30.0434 44.5592 29.5898L42.6499 27.6801C41.7427 26.7733 40.2573 26.7733 39.3501 27.6801L37.4408 29.5908C36.9872 30.044 36.0895 30.4158 35.4493 30.4158H32.7491C31.4664 30.4158 30.4157 31.4651 30.4157 32.7492V35.4481C30.4157 36.0896 30.0443 36.9863 29.591 37.4396L27.6814 39.3503C26.7735 40.2571 26.7735 41.7418 27.6814 42.6508L29.591 44.5605C30.0446 45.014 30.4157 45.9115 30.4157 46.552V49.2523C30.4157 50.535 31.4664 51.5857 32.7491 51.5857H35.4494C36.091 51.5857 36.9876 51.9571 37.4409 52.4104L39.3502 54.32C40.2574 55.2269 41.7428 55.2269 42.65 54.32L44.5593 52.4104C45.013 51.9568 45.9093 51.5857 46.5508 51.5857H49.2522C50.5363 51.5857 51.5856 50.535 51.5856 49.2523V46.552C51.5856 45.9094 51.9573 45.0137 52.4102 44.5605L54.3199 42.6508C55.2263 41.7419 55.2263 40.2572 54.3197 39.3507ZM50.7606 42.9109C49.8719 43.7974 49.2517 45.2965 49.2517 46.5523V49.2526H46.5504C45.295 49.2526 43.7966 49.8725 42.9094 50.7611L40.9998 52.6707L39.0901 50.7611C38.2014 49.8724 36.7045 49.2526 35.4491 49.2526H32.7488V46.5523C32.7488 45.2965 32.1289 43.7995 31.2403 42.9109L29.3307 41.0003L31.2403 39.0896C32.129 38.202 32.7488 36.705 32.7488 35.4482V32.7494H35.4491C36.7045 32.7494 38.2015 32.1285 39.0901 31.2409L40.9998 29.3302L42.9097 31.2399C43.797 32.1285 45.2954 32.7483 46.5508 32.7483H49.2521V35.4497C49.2521 36.7051 49.872 38.2024 50.7609 39.0911L52.6698 41.0003L50.7606 42.9109Z" fill="url(#paint1_linear_1_3162)" stroke="url(#paint2_linear_1_3162)" stroke-width="0.0683599"/>
<path d="M46.3498 35.7502L39.1478 42.9509L35.6492 39.4519L33.9996 41.1018L39.1478 46.2503L47.9997 37.3998L46.3498 35.7502Z" fill="url(#paint3_linear_1_3162)"/>
</g>
<defs>
<linearGradient id="paint0_linear_1_3162" x1="41" y1="0" x2="41" y2="82" gradientUnits="userSpaceOnUse">
<stop stop-color="#004AAD"/>
<stop offset="0.307692" stop-color="#0097B2"/>
<stop offset="1" stop-color="#29D9C2"/>
</linearGradient>
<linearGradient id="paint1_linear_1_3162" x1="41.0001" y1="27" x2="41.0001" y2="55.0001" gradientUnits="userSpaceOnUse">
<stop stop-color="#004AAD"/>
<stop offset="0.307692" stop-color="#0097B2"/>
<stop offset="1" stop-color="#29D9C2"/>
</linearGradient>
<linearGradient id="paint2_linear_1_3162" x1="41.0001" y1="27" x2="41.0001" y2="55.0001" gradientUnits="userSpaceOnUse">
<stop stop-color="#004AAD"/>
<stop offset="0.307692" stop-color="#0097B2"/>
<stop offset="1" stop-color="#29D9C2"/>
</linearGradient>
<linearGradient id="paint3_linear_1_3162" x1="40.9997" y1="35.7502" x2="40.9997" y2="46.2503" gradientUnits="userSpaceOnUse">
<stop stop-color="#004AAD"/>
<stop offset="0.307692" stop-color="#0097B2"/>
<stop offset="1" stop-color="#29D9C2"/>
</linearGradient>
<clipPath id="clip0_1_3162">
<rect width="28" height="28" fill="white" transform="translate(27 27)"/>
</clipPath>
</defs>
</svg>
