<svg width="82" height="82" viewBox="0 0 82 82" fill="none" xmlns="http://www.w3.org/2000/svg">
<mask id="path-1-inside-1_1_3169" fill="white">
<path d="M0 41C0 18.3563 18.3563 0 41 0C63.6437 0 82 18.3563 82 41C82 63.6437 63.6437 82 41 82C18.3563 82 0 63.6437 0 41Z"/>
</mask>
<path d="M0 41C0 18.3563 18.3563 0 41 0C63.6437 0 82 18.3563 82 41C82 63.6437 63.6437 82 41 82C18.3563 82 0 63.6437 0 41Z" fill="url(#paint0_linear_1_3169)"/>
<path d="M0 41M82 41M82 41M0 41M41 0M82 41M41 82M0 41M41 82V81C18.9086 81 1 63.0914 1 41H0H-1C-1 64.196 17.804 83 41 83V82ZM82 41H81C81 63.0914 63.0914 81 41 81V82V83C64.196 83 83 64.196 83 41H82ZM41 0V1C63.0914 1 81 18.9086 81 41H82H83C83 17.804 64.196 -1 41 -1V0ZM41 0V-1C17.804 -1 -1 17.804 -1 41H0H1C1 18.9086 18.9086 1 41 1V0Z" fill="#29D9C2" mask="url(#path-1-inside-1_1_3169)"/>
<rect x="7" y="7" width="68" height="68" rx="34" fill="#050416"/>
<g clip-path="url(#clip0_1_3169)">
<mask id="mask0_1_3169" style="mask-type:luminance" maskUnits="userSpaceOnUse" x="27" y="27" width="28" height="28">
<path d="M27 27.0001H54.9999V55H27V27.0001Z" fill="white"/>
</mask>
<g mask="url(#mask0_1_3169)">
<path d="M39.1909 28.7545C39.607 28.1685 40.2812 27.8204 40.9999 27.8204C41.7187 27.8204 42.3929 28.1685 42.809 28.7545C43.426 29.6233 44.5737 29.9659 45.5424 29.522C46.1958 29.2226 46.9537 29.2582 47.5762 29.6176C48.1986 29.9769 48.6084 30.6155 48.6758 31.3311C48.7758 32.392 49.6706 33.2321 50.7315 33.3321C51.447 33.3995 52.0856 33.8093 52.445 34.4317C52.8043 35.0542 52.84 35.8668 52.5406 36.5202C52.0967 37.489 52.3811 38.6365 53.2499 39.2536C53.8359 39.6697 54.184 40.3439 54.184 41.0626C54.184 41.7814 53.8359 42.4556 53.2499 42.8717C52.3811 43.4888 52.0967 44.6363 52.5406 45.6051C52.84 46.2585 52.8043 47.0164 52.445 47.6388C52.0856 48.2613 51.447 48.6711 50.7315 48.7385C49.6706 48.8385 48.7758 49.7332 48.6758 50.7942C48.6084 51.5097 48.1986 52.1483 47.5762 52.5076C46.9537 52.867 46.1958 52.9026 45.5424 52.6032C44.5737 52.1593 43.426 52.3811 42.809 53.25C42.3929 53.836 41.7187 54.1841 40.9999 54.1841C40.2812 54.1841 39.607 53.836 39.1909 53.25C38.5739 52.3811 37.4262 52.1593 36.4575 52.6032C35.8041 52.9026 35.0462 52.867 34.4237 52.5076C33.8013 52.1483 33.3915 51.5097 33.3241 50.7942C33.2241 49.7332 32.3293 48.8385 31.2684 48.7385C30.5529 48.6711 29.9143 48.2613 29.5549 47.6388C29.1956 47.0164 29.1599 46.2585 29.4593 45.6051C29.9032 44.6363 29.6188 43.4888 28.75 42.8717C28.164 42.4556 27.8159 41.7814 27.8159 41.0626C27.8159 40.3439 28.164 39.6697 28.75 39.2536C29.6188 38.6365 29.9032 37.489 29.4593 36.5202C29.1599 35.8668 29.1956 35.0542 29.5549 34.4317C29.9143 33.8093 30.5529 33.3995 31.2684 33.3321C32.3293 33.2321 33.2241 32.392 33.3241 31.3311C33.3915 30.6155 33.8013 29.9769 34.4237 29.6176C35.0462 29.2582 35.8041 29.2226 36.4575 29.522C37.4262 29.9659 38.5739 29.6233 39.1909 28.7545Z" stroke="url(#paint1_linear_1_3169)" stroke-width="1.64062" stroke-miterlimit="10" stroke-linecap="round" stroke-linejoin="round"/>
<path d="M37.7188 41L40.1797 43.4609L43.9907 39.65" stroke="url(#paint2_linear_1_3169)" stroke-width="1.64062" stroke-miterlimit="10" stroke-linecap="round" stroke-linejoin="round"/>
<path d="M49.2031 41C49.2031 45.5305 45.5304 49.2031 41 49.2031C36.4695 49.2031 32.7969 45.5305 32.7969 41C32.7969 36.4696 36.4695 32.7422 41 32.7422C45.5304 32.7422 49.2031 36.4696 49.2031 41Z" stroke="url(#paint3_linear_1_3169)" stroke-width="1.64062" stroke-miterlimit="10" stroke-linecap="round" stroke-linejoin="round"/>
</g>
</g>
<defs>
<linearGradient id="paint0_linear_1_3169" x1="41" y1="0" x2="41" y2="82" gradientUnits="userSpaceOnUse">
<stop stop-color="#004AAD"/>
<stop offset="0.307692" stop-color="#0097B2"/>
<stop offset="1" stop-color="#29D9C2"/>
</linearGradient>
<linearGradient id="paint1_linear_1_3169" x1="40.9999" y1="54.1841" x2="40.9999" y2="27.8204" gradientUnits="userSpaceOnUse">
<stop stop-color="#004AAD"/>
<stop offset="0.307692" stop-color="#0097B2"/>
<stop offset="1" stop-color="#29D9C2"/>
</linearGradient>
<linearGradient id="paint2_linear_1_3169" x1="40.8547" y1="43.4609" x2="40.8547" y2="39.65" gradientUnits="userSpaceOnUse">
<stop stop-color="#004AAD"/>
<stop offset="0.307692" stop-color="#0097B2"/>
<stop offset="1" stop-color="#29D9C2"/>
</linearGradient>
<linearGradient id="paint3_linear_1_3169" x1="41" y1="49.2031" x2="41" y2="32.7422" gradientUnits="userSpaceOnUse">
<stop stop-color="#004AAD"/>
<stop offset="0.307692" stop-color="#0097B2"/>
<stop offset="1" stop-color="#29D9C2"/>
</linearGradient>
<clipPath id="clip0_1_3169">
<rect width="28" height="28" fill="white" transform="translate(27 27)"/>
</clipPath>
</defs>
</svg>
